<svg width="23" height="18" viewBox="0 0 23 18" fill="none" xmlns="http://www.w3.org/2000/svg">
<mask id="mask0_7_68" style="mask-type:alpha" maskUnits="userSpaceOnUse" x="0" y="0" width="23" height="18">
<rect y="0.28833" width="22.1557" height="16.8055" fill="#D9D9D9"/>
</mask>
<g mask="url(#mask0_7_68)">
<path d="M20.6475 15.8924C18.7242 15.8924 16.8241 15.5744 14.947 14.9384C13.0699 14.3023 11.3621 13.4008 9.82348 12.2338C8.28489 11.0667 7.09633 9.77128 6.2578 8.34748C5.41927 6.92368 5 5.48238 5 4.02357C5 3.8135 5.09232 3.63844 5.27695 3.4984C5.46158 3.35835 5.69237 3.28833 5.96931 3.28833H9.70809C9.92349 3.28833 10.1158 3.34376 10.2851 3.45463C10.4543 3.5655 10.5543 3.6968 10.5851 3.84851L11.1851 6.29931C11.2159 6.48604 11.2082 6.64359 11.1621 6.77197C11.1159 6.90034 11.0313 7.01121 10.9082 7.10458L8.66954 8.82014C8.97726 9.25195 9.34267 9.66917 9.76579 10.0718C10.1889 10.4744 10.6543 10.8625 11.1621 11.2359C11.639 11.5977 12.1391 11.9332 12.6622 12.2425C13.1853 12.5518 13.7392 12.8348 14.3239 13.0915L16.4933 11.446C16.6317 11.341 16.8125 11.2622 17.0356 11.2097C17.2587 11.1572 17.478 11.1426 17.6934 11.1659L20.8783 11.6561C21.0937 11.7027 21.2706 11.7874 21.4091 11.9099C21.5475 12.0324 21.6168 12.1696 21.6168 12.3213V15.1572C21.6168 15.3673 21.5245 15.5423 21.3398 15.6824C21.1552 15.8224 20.9244 15.8924 20.6475 15.8924ZM7.79254 7.4897L9.31575 6.33433L8.92341 4.68879H6.86939C6.94632 5.16728 7.05402 5.63993 7.19249 6.10675C7.33097 6.57357 7.53098 7.03455 7.79254 7.4897ZM16.0548 13.7568C16.6548 13.9551 17.2664 14.1127 17.8895 14.2294C18.5127 14.3461 19.1397 14.422 19.7705 14.457V12.9165L17.6011 12.5839L16.0548 13.7568Z" fill="white"/>
</g>
</svg>
