<svg width="20" height="20" viewBox="0 0 20 20" fill="none" xmlns="http://www.w3.org/2000/svg">
<g clip-path="url(#clip0_27_9)">
<path d="M11.25 18.24C15.2592 17.6367 18.3334 14.1775 18.3334 10C18.3334 5.39752 14.6025 1.66669 10 1.66669C5.39752 1.66669 1.66669 5.39752 1.66669 10C1.66669 14.1775 4.74085 17.6375 8.75002 18.24V12.5H7.50002C7.1685 12.5 6.85056 12.3683 6.61614 12.1339C6.38172 11.8995 6.25002 11.5815 6.25002 11.25C6.25002 10.9185 6.38172 10.6006 6.61614 10.3661C6.85056 10.1317 7.1685 10 7.50002 10H8.75002V8.33335C8.75002 7.55981 9.05731 6.81794 9.60429 6.27096C10.1513 5.72398 10.8931 5.41669 11.6667 5.41669H12.0834C12.4149 5.41669 12.7328 5.54838 12.9672 5.7828C13.2017 6.01722 13.3334 6.33517 13.3334 6.66669C13.3334 6.99821 13.2017 7.31615 12.9672 7.55057C12.7328 7.78499 12.4149 7.91669 12.0834 7.91669H11.6667C11.5562 7.91669 11.4502 7.96059 11.3721 8.03873C11.2939 8.11687 11.25 8.22285 11.25 8.33335V10H12.5C12.8315 10 13.1495 10.1317 13.3839 10.3661C13.6183 10.6006 13.75 10.9185 13.75 11.25C13.75 11.5815 13.6183 11.8995 13.3839 12.1339C13.1495 12.3683 12.8315 12.5 12.5 12.5H11.25V18.24Z" fill="#223A74"/>
</g>
<defs>
<clipPath id="clip0_27_9">
<rect width="20" height="20" fill="white"/>
</clipPath>
</defs>
</svg>
